<?xml version="1.0" encoding="iso-8859-1"?>
<!-- Uploaded to: SVG Repo, www.svgrepo.com, Generator: SVG Repo Mixer Tools -->
<svg version="1.1" id="Layer_1" xmlns="http://www.w3.org/2000/svg" xmlns:xlink="http://www.w3.org/1999/xlink" 
	 viewBox="0 0 512 512" xml:space="preserve">
<path style="fill:#A7A7AB;" d="M460.8,486.4h-34.133c-14.115,0-25.6-11.484-25.6-25.6V145.067c0-4.705-3.828-8.533-8.533-8.533
	h-17.067c-14.115,0-25.6-11.484-25.6-25.6v-25.6c0-4.705-3.828-8.533-8.533-8.533h-25.6c-4.705,0-8.533,3.828-8.533,8.533V102.4
	c0,4.713-3.821,8.533-8.533,8.533s-8.533-3.821-8.533-8.533V85.333c0-14.116,11.485-25.6,25.6-25.6h25.6
	c14.115,0,25.6,11.484,25.6,25.6v25.6c0,4.705,3.828,8.533,8.533,8.533h17.067c14.115,0,25.6,11.484,25.6,25.6V460.8
	c0,4.705,3.828,8.533,8.533,8.533H460.8c4.705,0,8.533-3.828,8.533-8.533v-34.133c0-4.713,3.821-8.533,8.533-8.533
	c4.713,0,8.533,3.821,8.533,8.533V460.8C486.4,474.916,474.915,486.4,460.8,486.4z"/>
<path style="fill:#7A7C82;" d="M315.733,162.133h-42.667v-42.667c0-9.426,7.641-17.067,17.067-17.067h8.533
	c9.426,0,17.067,7.641,17.067,17.067V162.133z"/>
<circle style="fill:#D3D3D5;" cx="298.667" cy="119.467" r="8.533"/>
<path id="SVGCleanerId_0" style="fill:#A7A7AB;" d="M136.533,273.067H102.4c-4.713,0-8.533-3.821-8.533-8.533v-68.267
	c0-4.713,3.821-8.533,8.533-8.533h34.133V273.067z"/>
<g>
	<path id="SVGCleanerId_0_1_" style="fill:#A7A7AB;" d="M136.533,273.067H102.4c-4.713,0-8.533-3.821-8.533-8.533v-68.267
		c0-4.713,3.821-8.533,8.533-8.533h34.133V273.067z"/>
</g>
<path style="fill:#909296;" d="M106.667,264.533c-2.356,0-4.267-1.91-4.267-4.267v-72.533c-4.713,0-8.533,3.821-8.533,8.533v68.267
	c0,4.713,3.821,8.533,8.533,8.533h34.133v-8.533H106.667z"/>
<path style="fill:#FFE88A;" d="M256,162.133h-68.267V128c0-4.713,3.821-8.533,8.533-8.533h51.2c4.713,0,8.533,3.821,8.533,8.533
	V162.133z"/>
<path style="fill:#F9D84E;" d="M213.333,119.467h-17.067c-4.713,0-8.533,3.821-8.533,8.533v34.133H204.8V128
	C204.8,123.287,208.621,119.467,213.333,119.467z"/>
<g>
	<path style="fill:#4E5058;" d="M120.533,366.933c-4.713,0-8.533-3.821-8.533-8.533v-34.133c0-4.713,3.821-8.533,8.533-8.533
		s8.533,3.821,8.533,8.533V358.4C129.067,363.113,125.246,366.933,120.533,366.933z"/>
	<path style="fill:#4E5058;" d="M120.533,435.2c-4.713,0-8.533-3.821-8.533-8.533v-34.133c0-4.713,3.821-8.533,8.533-8.533
		s8.533,3.821,8.533,8.533v34.133C129.067,431.379,125.246,435.2,120.533,435.2z"/>
</g>
<path style="fill:#D3D3D5;" d="M375.467,512H136.533c-4.713,0-8.533-3.821-8.533-8.533V162.133c0-4.713,3.821-8.533,8.533-8.533
	h238.933c4.713,0,8.533,3.821,8.533,8.533v341.333C384,508.179,380.179,512,375.467,512z"/>
<path style="fill:#45CAE0;" d="M375.467,153.6H188.8V512h186.667c4.713,0,8.533-3.821,8.533-8.533V162.133
	C384,157.421,380.179,153.6,375.467,153.6z"/>
<path style="fill:#D3D3D5;" d="M332.8,426.667H230.4c-4.713,0-8.533-3.821-8.533-8.533V247.467c0-4.713,3.821-8.533,8.533-8.533
	h102.4c4.713,0,8.533,3.821,8.533,8.533v170.667C341.333,422.846,337.513,426.667,332.8,426.667z"/>
<g>
	<path style="fill:#64666D;" d="M230.4,238.933c-4.713,0-8.533,3.821-8.533,8.533v91.022l99.555-99.555H230.4z"/>
	<path style="fill:#64666D;" d="M221.867,418.133c0,4.713,3.821,8.533,8.533,8.533h34.133l76.8-76.8v-62.578L221.867,406.755
		V418.133z"/>
	<path style="fill:#64666D;" d="M332.8,426.667c4.713,0,8.533-3.821,8.533-8.533v-51.2L281.6,426.667H332.8z"/>
</g>
<g>
	<path style="fill:#146F80;" d="M332.8,221.867H230.4c-4.713,0-8.533-3.821-8.533-8.533c0-4.713,3.821-8.533,8.533-8.533h102.4
		c4.713,0,8.533,3.821,8.533,8.533C341.333,218.046,337.513,221.867,332.8,221.867z"/>
	<path style="fill:#146F80;" d="M332.8,460.8H230.4c-4.713,0-8.533-3.821-8.533-8.533s3.821-8.533,8.533-8.533h102.4
		c4.713,0,8.533,3.821,8.533,8.533S337.513,460.8,332.8,460.8z"/>
</g>
<g>
	<rect x="187.733" y="153.6" style="fill:#1C8B9E;" width="8.533" height="358.4"/>
	<path style="fill:#1C8B9E;" d="M332.8,238.933H230.4c-4.713,0-8.533,3.821-8.533,8.533v170.667c0,4.713,3.821,8.533,8.533,8.533
		h102.4c4.713,0,8.533-3.821,8.533-8.533V247.467C341.333,242.754,337.513,238.933,332.8,238.933z M324.267,409.6h-85.333V256
		h85.333V409.6z"/>
</g>
<path style="fill:#A7A7AB;" d="M460.8,332.8c-4.713,0-8.533-3.821-8.533-8.533V179.2c0-89.401-72.733-162.133-162.133-162.133
	h-68.267c-89.401,0-162.133,72.733-162.133,162.133v145.067c0,4.713-3.821,8.533-8.533,8.533s-8.533-3.821-8.533-8.533V179.2
	c0-98.812,80.388-179.2,179.2-179.2h68.267c98.812,0,179.2,80.388,179.2,179.2v145.067C469.333,328.979,465.513,332.8,460.8,332.8z"
	/>
<path style="fill:#E9E9EA;" d="M34.133,418.133h-25.6C3.821,418.133,0,414.313,0,409.6v-68.267c0-4.713,3.821-8.533,8.533-8.533
	h25.6V418.133z"/>
<path style="fill:#909296;" d="M68.267,435.2H34.133c-4.713,0-8.533-3.821-8.533-8.533v-102.4c0-4.713,3.821-8.533,8.533-8.533
	h34.133c4.713,0,8.533,3.821,8.533,8.533v102.4C76.8,431.379,72.979,435.2,68.267,435.2z"/>
<g>
	<path style="fill:#64666D;" d="M68.267,315.733H34.133c-4.713,0-8.533,3.821-8.533,8.533v25.6h51.2v-25.6
		C76.8,319.554,72.979,315.733,68.267,315.733z"/>
	<rect x="25.6" y="375.467" style="fill:#64666D;" width="51.2" height="42.667"/>
</g>
<path style="fill:#4E5058;" d="M25.6,418.133v8.533c0,4.713,3.821,8.533,8.533,8.533h34.133c4.713,0,8.533-3.821,8.533-8.533v-8.533
	H25.6z"/>
<path style="fill:#E9E9EA;" d="M477.867,418.133h25.6c4.713,0,8.533-3.821,8.533-8.533v-68.267c0-4.713-3.821-8.533-8.533-8.533
	h-25.6V418.133z"/>
<path style="fill:#909296;" d="M443.733,435.2h34.133c4.713,0,8.533-3.821,8.533-8.533v-102.4c0-4.713-3.821-8.533-8.533-8.533
	h-34.133c-4.713,0-8.533,3.821-8.533,8.533v102.4C435.2,431.379,439.021,435.2,443.733,435.2z"/>
<g>
	<path style="fill:#64666D;" d="M443.733,315.733h34.133c4.713,0,8.533,3.821,8.533,8.533v25.6h-51.2v-25.6
		C435.2,319.554,439.021,315.733,443.733,315.733z"/>
	<rect x="435.2" y="375.467" style="fill:#64666D;" width="51.2" height="42.667"/>
</g>
<path style="fill:#4E5058;" d="M486.4,418.133v8.533c0,4.713-3.821,8.533-8.533,8.533h-34.133c-4.713,0-8.533-3.821-8.533-8.533
	v-8.533H486.4z"/>
</svg>